<?xml version="1.0" standalone="no"?>
<!DOCTYPE svg PUBLIC "-//W3C//DTD SVG 20010904//EN"
 "http://www.w3.org/TR/2001/REC-SVG-20010904/DTD/svg10.dtd">
<svg version="1.0" xmlns="http://www.w3.org/2000/svg"
 width="330.000000pt" height="252.000000pt" viewBox="0 0 330.000000 252.000000"
 preserveAspectRatio="xMidYMid meet">
<metadata>
Created by potrace 1.16, written by Peter Selinger 2001-2019
</metadata>
<g transform="translate(0.000000,252.000000) scale(0.100000,-0.100000)"
fill="#000000" stroke="none">
<path d="M614 1887 c-6 -17 26 -87 50 -106 12 -10 35 -11 93 -5 43 4 70 9 61
11 -15 4 -16 8 -7 25 6 11 9 33 7 49 -5 31 -9 30 67 13 l20 -5 -20 13 c-12 7
-69 14 -142 16 -103 4 -124 2 -129 -11z"/>
<path d="M553 1635 c-3 -9 8 -37 24 -63 l29 -47 113 1 c62 1 115 4 118 7 8 9
-4 48 -27 85 l-20 32 -115 0 c-95 0 -117 -3 -122 -15z"/>
<path d="M907 1283 c-8 -41 4 -79 54 -171 106 -194 184 -278 301 -325 49 -20
72 -21 288 -22 l235 -1 -215 6 c-118 3 -209 7 -202 8 6 1 12 5 12 10 0 8 -49
32 -67 32 -7 0 -13 5 -13 11 0 6 -7 8 -16 5 -21 -8 -41 4 -24 14 7 4 9 13 5
20 -6 9 -9 9 -15 0 -12 -19 -40 -4 -40 21 0 11 -10 29 -22 38 -13 12 -18 22
-13 31 7 11 10 10 19 -1 6 -8 20 -21 31 -29 11 -8 1 6 -22 32 -23 25 -54 70
-69 100 -14 29 -44 83 -66 121 -28 46 -39 75 -36 92 3 14 1 25 -5 25 -20 0
-78 -43 -93 -68 -13 -23 -14 -24 -11 -5 3 12 2 37 -2 55 l-7 33 -7 -32z"/>
<path d="M1454 656 c-28 -28 -34 -42 -34 -76 0 -34 6 -48 34 -76 47 -47 100
-48 151 -3 31 27 35 37 35 78 0 40 -5 52 -33 79 -27 26 -41 32 -76 32 -36 0
-49 -6 -77 -34z"/>
<path d="M1941 655 c-45 -51 -44 -104 3 -151 46 -46 101 -48 148 -5 29 26 33
36 33 80 0 41 -5 55 -29 80 -25 26 -37 31 -77 31 -41 0 -51 -4 -78 -35z"/>
</g>
</svg>
